<?xml version="1.0" encoding="UTF-8"?><svg xmlns="http://www.w3.org/2000/svg" width="2000" height="2000" viewBox="0 0 2000 2000"><g id="a"><rect x="0" y="0" width="2000" height="2000" rx="300" ry="300" fill="#101018"/></g><g id="b"><path d="M1201.73,669.55h0s449.9-.01,449.9-.01c4.46,0,8.31-3.13,9.21-7.51l31.41-152.05c1.21-5.84-3.25-11.31-9.21-11.31H541.78c-4.46,0-8.31,3.13-9.21,7.51l-31.41,152.05c-1.21,5.84,3.25,11.31,9.21,11.31h475.85c8.34,0,12.56,10.05,6.71,16l-559.5,570.08c-63.36,64.56-106.96,145.87-125.68,234.36h0c-1.24,5.85,3.23,11.36,9.2,11.36h1169.51c4.43,0,8.27-3.1,9.2-7.43l32.68-152.05c1.26-5.86-3.21-11.39-9.2-11.39h-457.22s53.51-253.79,53.51-253.79c.92-4.35,4.76-7.47,9.21-7.47h378.78c4.44,0,8.27-3.1,9.2-7.44l29.85-139.35c1.25-5.86-3.21-11.38-9.2-11.38h-370.77c-5.98,0-10.44-5.5-9.21-11.35l44.44-211.09,4.01-19.04ZM600.15,1314.56l326.17-341.67c6.55-6.86,17.98-.82,16.01,8.45l-74.25,349.11h0s-261.13.01-261.13.01c-8.28,0-12.52-9.92-6.81-15.91Z" fill="#f7dfb7"/><path d="M1696.63,458.67H555.38c-5.96,0-10.42-5.47-9.21-11.31l31.41-152.05c.9-4.37,4.75-7.51,9.21-7.51h1141.26c5.96,0,10.42,5.47,9.21,11.31l-31.41,152.05c-.9,4.37-4.75,7.51-9.21,7.51Z" fill="#f7dfb7"/><path d="M1675.62,442.43H577.58c-5.74,0-10.03-4.43-8.86-9.16l30.22-123.15c.87-3.54,4.57-6.08,8.86-6.08h1098.03c5.74,0,10.03,4.43,8.86,9.16l-30.22,123.15c-.87,3.54-4.57,6.08-8.86,6.08Z" fill="#101018"/><path d="M630.93,315.27l18.51.58-28.38,115.33-18.51-.58,28.38-115.33Z" fill="#f7dfb7"/><path d="M677.81,315.27l18.51.58-28.38,115.33-18.51-.58,28.38-115.33Z" fill="#f7dfb7"/><path d="M724.7,315.27l18.51.58-28.38,115.33-18.51-.58,28.38-115.33Z" fill="#f7dfb7"/><path d="M771.58,315.27l18.51.58-28.38,115.33-18.51-.58,28.38-115.33Z" fill="#f7dfb7"/><path d="M818.46,315.27l18.51.58-28.38,115.33-18.51-.58,28.38-115.33Z" fill="#f7dfb7"/><path d="M865.35,315.27l18.51.58-28.38,115.33-18.51-.58,28.38-115.33Z" fill="#f7dfb7"/><path d="M912.23,315.27l18.51.58-28.38,115.33-18.51-.58,28.38-115.33Z" fill="#f7dfb7"/><path d="M959.11,315.27l18.51.58-28.38,115.33-18.51-.58,28.38-115.33Z" fill="#f7dfb7"/><path d="M1005.99,315.27l18.51.58-28.38,115.33-18.51-.58,28.38-115.33Z" fill="#f7dfb7"/><path d="M1052.88,315.27l18.51.58-28.38,115.33-18.51-.58,28.38-115.33Z" fill="#f7dfb7"/><path d="M1099.76,315.27l18.51.58-28.38,115.33-18.51-.58,28.38-115.33Z" fill="#f7dfb7"/><path d="M1146.64,315.27l18.51.58-28.38,115.33-18.51-.58,28.38-115.33Z" fill="#f7dfb7"/><path d="M1193.53,315.27l18.51.58-28.38,115.33-18.51-.58,28.38-115.33Z" fill="#f7dfb7"/><path d="M1240.41,315.27l18.51.58-28.38,115.33-18.51-.58,28.38-115.33Z" fill="#f7dfb7"/><path d="M1287.29,315.27l18.51.58-28.38,115.33-18.51-.58,28.38-115.33Z" fill="#f7dfb7"/><path d="M1334.17,315.27l18.51.58-28.38,115.33-18.51-.58,28.38-115.33Z" fill="#f7dfb7"/><path d="M1381.06,315.27l18.51.58-28.38,115.33-18.51-.58,28.38-115.33Z" fill="#f7dfb7"/><path d="M1427.94,315.27l18.51.58-28.38,115.33-18.51-.58,28.38-115.33Z" fill="#f7dfb7"/><path d="M1474.82,315.27l18.51.58-28.38,115.33-18.51-.58,28.38-115.33Z" fill="#f7dfb7"/><path d="M1521.71,315.27l18.51.58-28.38,115.33-18.51-.58,28.38-115.33Z" fill="#f7dfb7"/><path d="M1568.59,315.27l18.51.58-28.38,115.33-18.51-.58,28.38-115.33Z" fill="#f7dfb7"/><path d="M1615.47,315.27l18.51.58-28.38,115.33-18.51-.58,28.38-115.33Z" fill="#f7dfb7"/><path d="M1662.35,315.27l18.51.58-28.38,115.33-18.51-.58,28.38-115.33Z" fill="#f7dfb7"/><path d="M630.93,315.27l18.51.58-28.38,115.33-18.51-.58,28.38-115.33Z" fill="#f7dfb7"/><path d="M677.81,315.27l18.51.58-28.38,115.33-18.51-.58,28.38-115.33Z" fill="#f7dfb7"/><path d="M724.7,315.27l18.51.58-28.38,115.33-18.51-.58,28.38-115.33Z" fill="#f7dfb7"/><path d="M771.58,315.27l18.51.58-28.38,115.33-18.51-.58,28.38-115.33Z" fill="#f7dfb7"/><path d="M818.46,315.27l18.51.58-28.38,115.33-18.51-.58,28.38-115.33Z" fill="#f7dfb7"/><path d="M865.35,315.27l18.51.58-28.38,115.33-18.51-.58,28.38-115.33Z" fill="#f7dfb7"/><path d="M912.23,315.27l18.51.58-28.38,115.33-18.51-.58,28.38-115.33Z" fill="#f7dfb7"/><path d="M959.11,315.27l18.51.58-28.38,115.33-18.51-.58,28.38-115.33Z" fill="#f7dfb7"/><path d="M1005.99,315.27l18.51.58-28.38,115.33-18.51-.58,28.38-115.33Z" fill="#f7dfb7"/><path d="M1052.88,315.27l18.51.58-28.38,115.33-18.51-.58,28.38-115.33Z" fill="#f7dfb7"/><path d="M1099.76,315.27l18.51.58-28.38,115.33-18.51-.58,28.38-115.33Z" fill="#f7dfb7"/><path d="M1146.64,315.27l18.51.58-28.38,115.33-18.51-.58,28.38-115.33Z" fill="#f7dfb7"/><path d="M1193.53,315.27l18.51.58-28.38,115.33-18.51-.58,28.38-115.33Z" fill="#f7dfb7"/><path d="M1240.41,315.27l18.51.58-28.38,115.33-18.51-.58,28.38-115.33Z" fill="#f7dfb7"/><path d="M1287.29,315.27l18.51.58-28.38,115.33-18.51-.58,28.38-115.33Z" fill="#f7dfb7"/><path d="M1334.17,315.27l18.51.58-28.38,115.33-18.51-.58,28.38-115.33Z" fill="#f7dfb7"/><path d="M1381.06,315.27l18.51.58-28.38,115.33-18.51-.58,28.38-115.33Z" fill="#f7dfb7"/><path d="M1427.94,315.27l18.51.58-28.38,115.33-18.51-.58,28.38-115.33Z" fill="#f7dfb7"/><path d="M1474.82,315.27l18.51.58-28.38,115.33-18.51-.58,28.38-115.33Z" fill="#f7dfb7"/><path d="M1521.71,315.27l18.51.58-28.38,115.33-18.51-.58,28.38-115.33Z" fill="#f7dfb7"/><path d="M1568.59,315.27l18.51.58-28.38,115.33-18.51-.58,28.38-115.33Z" fill="#f7dfb7"/><path d="M1615.47,315.27l18.51.58-28.38,115.33-18.51-.58,28.38-115.33Z" fill="#f7dfb7"/><path d="M1662.35,315.27l18.51.58-28.38,115.33-18.51-.58,28.38-115.33Z" fill="#f7dfb7"/></g></svg>